<svg id="Layer_1" height="512" viewBox="0 0 256 256" width="512" xmlns="http://www.w3.org/2000/svg"><g><g><path d="m245.367 169.685h-194.815c-4.418 0-8-3.582-8-8v-138.444c0-4.418 3.582-8 8-8h194.814c4.418 0 8 3.582 8 8v138.444c.001 4.418-3.581 8-7.999 8z" fill="#a4c9ff"/></g><g><path d="m54.552 154.685v-124.444c0-1.657 1.343-3 3-3h180.814c1.657 0 3 1.343 3 3v124.444c0 1.657-1.343 3-3 3h-180.814c-1.657 0-3-1.343-3-3z" fill="#e0ebfc"/></g><g><path d="m245.366 171.685h-194.813c-5.514 0-10-4.486-10-10v-138.444c0-5.514 4.486-10 10-10h194.813c5.514 0 10 4.486 10 10v138.444c0 5.514-4.486 10-10 10zm-194.813-154.444c-3.309 0-6 2.691-6 6v138.444c0 3.309 2.691 6 6 6h194.813c3.309 0 6-2.691 6-6v-138.444c0-3.309-2.691-6-6-6z" fill="#3762cc"/></g><g><path d="m238.366 159.685h-180.814c-2.757 0-5-2.243-5-5v-124.444c0-2.757 2.243-5 5-5h180.814c2.757 0 5 2.243 5 5v124.444c0 2.756-2.243 5-5 5zm-180.814-130.444c-.552 0-1 .449-1 1v124.444c0 .551.448 1 1 1h180.814c.552 0 1-.449 1-1v-124.444c0-.551-.448-1-1-1z" fill="#3762cc"/></g><g><circle cx="199.148" cy="64.875" fill="#ffea92" r="28.311"/><path d="m201.9 61.499h-.752v-9.756h.752c2.689 0 4.878 2.188 4.878 4.878 0 1.104.896 2 2 2s2-.896 2-2c0-4.896-3.982-8.878-8.878-8.878h-.752v-.751c0-1.104-.896-2-2-2s-2 .896-2 2v.751h-.751c-4.896 0-8.878 3.982-8.878 8.878s3.982 8.878 8.878 8.878h.751v12.508h-.751c-2.689 0-4.878-2.188-4.878-4.878 0-1.104-.896-2-2-2s-2 .896-2 2c0 4.896 3.982 8.878 8.878 8.878h.751v.751c0 1.104.896 2 2 2s2-.896 2-2v-.751h.752c4.896 0 8.878-3.983 8.878-8.878v-2.751c0-4.896-3.983-8.879-8.878-8.879zm-5.503 0c-2.689 0-4.878-2.188-4.878-4.878s2.188-4.878 4.878-4.878h.751v9.756zm10.381 11.63c0 2.69-2.188 4.878-4.878 4.878h-.752v-12.508h.752c2.689 0 4.878 2.188 4.878 4.878z" fill="#3762cc"/></g><g><path d="m199.148 95.186c-16.713 0-30.311-13.597-30.311-30.311s13.598-30.311 30.311-30.311 30.311 13.598 30.311 30.311-13.598 30.311-30.311 30.311zm0-56.622c-14.508 0-26.311 11.803-26.311 26.311s11.803 26.311 26.311 26.311 26.311-11.803 26.311-26.311-11.803-26.311-26.311-26.311z" fill="#3762cc"/></g><g><path d="m88.459 143.741h-12.865c-1.657 0-3-1.343-3-3v-97.544c0-1.657 1.343-3 3-3h12.865c1.657 0 3 1.343 3 3v97.543c0 1.658-1.343 3.001-3 3.001z" fill="#6bdddd"/></g><g><path d="m122.459 143.741h-12.865c-1.657 0-3-1.343-3-3v-87.544c0-1.657 1.343-3 3-3h12.865c1.657 0 3 1.343 3 3v87.543c0 1.658-1.343 3.001-3 3.001z" fill="#6bdddd"/></g><g><path d="m156.459 143.741h-12.865c-1.657 0-3-1.343-3-3v-71.544c0-1.657 1.343-3 3-3h12.865c1.657 0 3 1.343 3 3v71.543c0 1.658-1.343 3.001-3 3.001z" fill="#6bdddd"/></g><g><path d="m190.459 143.741h-12.865c-1.657 0-3-1.343-3-3v-55.544c0-1.657 1.343-3 3-3h12.865c1.657 0 3 1.343 3 3v55.543c0 1.658-1.343 3.001-3 3.001z" fill="#6bdddd"/></g><g><path d="m88.459 145.741h-12.865c-2.757 0-5-2.243-5-5v-97.544c0-2.757 2.243-5 5-5h12.865c2.757 0 5 2.243 5 5v97.543c0 2.758-2.243 5.001-5 5.001zm-12.865-103.544c-.552 0-1 .449-1 1v97.543c0 .551.448 1 1 1h12.865c.552 0 1-.449 1-1v-97.543c0-.551-.448-1-1-1z" fill="#3762cc"/></g><g><path d="m122.459 145.741h-12.865c-2.757 0-5-2.243-5-5v-87.544c0-2.757 2.243-5 5-5h12.865c2.757 0 5 2.243 5 5v87.543c0 2.758-2.243 5.001-5 5.001zm-12.865-93.544c-.552 0-1 .449-1 1v87.543c0 .551.448 1 1 1h12.865c.552 0 1-.449 1-1v-87.543c0-.551-.448-1-1-1z" fill="#3762cc"/></g><g><path d="m156.459 145.741h-12.865c-2.757 0-5-2.243-5-5v-71.544c0-2.757 2.243-5 5-5h12.865c2.757 0 5 2.243 5 5v71.543c0 2.758-2.243 5.001-5 5.001zm-12.865-77.544c-.552 0-1 .449-1 1v71.543c0 .551.448 1 1 1h12.865c.552 0 1-.449 1-1v-71.543c0-.551-.448-1-1-1z" fill="#3762cc"/></g><g><path d="m190.459 145.741h-12.865c-2.757 0-5-2.243-5-5v-55.544c0-2.757 2.243-5 5-5h12.865c2.757 0 5 2.243 5 5v55.543c0 2.758-2.243 5.001-5 5.001zm-12.865-61.544c-.552 0-1 .449-1 1v55.543c0 .551.448 1 1 1h12.865c.552 0 1-.449 1-1v-55.543c0-.551-.448-1-1-1z" fill="#3762cc"/></g><g><g><g><g><path d="m119.117 125.939c2.885 0 5.507.716 7.747 1.952v-13.754h-8.73c.634 3.703.983 7.63.983 11.802z" fill="#4671c6"/></g></g><g><path d="m119.749 240.241h-102.054v-12.879c0-15.291 12.396-27.686 27.686-27.686h46.682c15.291 0 27.686 12.396 27.686 27.686z" fill="#e0ebfc"/></g><g><path d="m76.896 240.241-3.823-20.303c-5.343.025-3.359.025-8.701 0l-3.823 20.303z" fill="#4671c6"/></g><g><path d="m119.749 242.241h-102.054c-1.104 0-2-.896-2-2v-12.879c0-16.369 13.316-29.687 29.686-29.687h46.683c16.369 0 29.686 13.317 29.686 29.687v12.879c-.001 1.104-.896 2-2.001 2zm-100.054-4h98.054v-10.879c0-14.164-11.522-25.687-25.686-25.687h-46.682c-14.163 0-25.686 11.523-25.686 25.687z" fill="#3762cc"/></g><g><path d="m76.896 242.241h-16.348c-.596 0-1.159-.265-1.539-.723-.381-.458-.536-1.062-.427-1.647l3.823-20.303c.179-.945 1.005-1.63 1.966-1.63h.01l2.077.01c2.266.011 2.265.011 4.528 0l2.077-.01h.01c.962 0 1.787.684 1.966 1.63l3.823 20.303c.109.585-.046 1.188-.427 1.647-.379.458-.943.723-1.539.723zm-13.936-4h11.524l-3.068-16.295-.41.002c-2.283.011-2.283.011-4.568 0l-.409-.002z" fill="#3762cc"/></g><g><path d="m51.708 195.101-6.407 4.222c-.637.42-.699 1.332-.125 1.835l13.131 11.48c.448.392 1.12.379 1.553-.029l8.861-8.36z" fill="#e0ebfc"/></g><g><path d="m85.736 195.101 6.407 4.222c.637.42.699 1.332.125 1.835l-13.131 11.48c-.448.392-1.12.379-1.553-.029l-8.861-8.36z" fill="#e0ebfc"/></g><g><path d="m76.027 211.14-7.304-6.891-7.304 6.891 2.954 8.797h8.701z" fill="#4671c6"/></g><g><path d="m59.069 214.928c-.738 0-1.479-.26-2.077-.784l-13.132-11.48c-.748-.653-1.139-1.597-1.071-2.588s.582-1.875 1.412-2.422l6.406-4.222c.615-.404 1.399-.439 2.048-.092l17.014 9.147c.565.305.951.862 1.035 1.5.085.637-.143 1.276-.61 1.717l-8.86 8.36c-.609.575-1.386.864-2.165.864zm-11.74-14.545 11.718 10.244 6.285-5.931-13.52-7.269z" fill="#3762cc"/></g><g><path d="m78.376 214.928c-.779 0-1.557-.29-2.166-.866l-8.86-8.359c-.468-.441-.695-1.08-.61-1.717.084-.637.47-1.195 1.035-1.5l17.015-9.147c.648-.347 1.434-.313 2.048.092l6.406 4.222c.83.547 1.345 1.43 1.412 2.422s-.323 1.935-1.072 2.589l-13.13 11.479c-.6.524-1.34.785-2.078.785zm-6.265-10.231 6.286 5.931 11.718-10.244-4.483-2.955z" fill="#3762cc"/></g><g><path d="m73.072 221.938h-8.701c-.859 0-1.623-.549-1.896-1.364l-2.953-8.797c-.248-.739-.043-1.556.523-2.091l7.304-6.892c.771-.728 1.976-.728 2.745 0l7.305 6.892c.567.535.772 1.352.523 2.091l-2.954 8.797c-.274.815-1.036 1.364-1.896 1.364zm-7.262-4h5.824l2.089-6.221-5.001-4.719-5.001 4.719z" fill="#3762cc"/></g><g><path d="m126.865 114.137h-70.776c-15.946 0-28.873-12.927-28.873-28.873 0-15.946 12.927-28.873 28.873-28.873h32.047c21.389 0 38.729 17.339 38.729 38.729z" fill="#4671c6"/></g><g><path d="m68.722 177.915c-7.812 0-14.166-6.355-14.166-14.167v-.895c0-2.879 2.342-5.221 5.22-5.221h17.893c2.879 0 5.221 2.342 5.221 5.221v.895c-.001 7.812-6.357 14.167-14.168 14.167zm-8.947-16.283c-.673 0-1.22.547-1.22 1.221v.895c0 5.606 4.561 10.167 10.166 10.167 5.606 0 10.167-4.561 10.167-10.167v-.895c0-.673-.548-1.221-1.221-1.221z" fill="#3762cc"/></g><g><path d="m119.117 125.939c0-4.171-.349-8.099-.983-11.802h-62.045c-13.554 0-24.922-9.342-28.028-21.937-6.027 8.682-9.734 19.973-9.734 33.739-9.211 0-15.693 7.25-15.693 15.445 0 7.899 5.703 15.445 17.226 15.445 5.512 21.855 25.296 38.034 48.863 38.034 23.567 0 43.351-16.179 48.863-38.034 11.633 0 17.226-7.634 17.226-15.445-.001-8.23-6.524-15.445-15.695-15.445z" fill="#f9cfcf"/></g><g><path d="m28.673 94.297c.036.11.069.222.107.332-.037-.109-.07-.221-.107-.332z" fill="#4671c6"/></g><g><path d="m18.327 125.939c0-13.766 3.707-25.057 9.734-33.739.004.015.009.029.013.044-.558-2.235-.857-4.572-.857-6.98 0-6.578 2.204-12.64 5.909-17.495-12.639 1.133-22.547 11.748-22.547 24.681v3.559 31.878c2.237-1.233 4.858-1.948 7.748-1.948z" fill="#4671c6"/></g><g><g><path d="m126.865 129.89c-.332 0-.665-.083-.966-.249-2.049-1.13-4.33-1.703-6.782-1.703-1.104 0-2-.896-2-2 0-3.904-.321-7.762-.954-11.465-.099-.581.063-1.176.443-1.626.38-.451.939-.71 1.528-.71h8.73c1.104 0 2 .896 2 2v13.753c0 .708-.374 1.362-.983 1.722-.312.185-.664.278-1.016.278zm-5.772-5.85c1.3.134 2.56.403 3.772.803v-8.706h-4.401c.35 2.587.561 5.232.629 7.903z" fill="#3762cc"/></g><g><path d="m10.579 129.887c-.353 0-.704-.093-1.018-.278-.608-.36-.982-1.015-.982-1.722v-35.437c0-13.96 10.476-25.428 24.367-26.673.783-.066 1.547.332 1.93 1.026s.32 1.549-.161 2.179c-3.597 4.715-5.498 10.345-5.498 16.282 0 2.17.265 4.342.785 6.458.138.558.029 1.147-.299 1.619-6.222 8.963-9.376 19.931-9.376 32.598 0 1.104-.896 2-2 2-2.454 0-4.736.572-6.783 1.699-.3.166-.633.249-.965.249zm18.346-59.306c-9.569 2.77-16.346 11.513-16.346 21.87v32.391c1.212-.399 2.471-.667 3.771-.801.297-12.364 3.511-23.198 9.565-32.243-.464-2.148-.698-4.341-.698-6.533 0-5.203 1.271-10.202 3.708-14.684z" fill="#3762cc"/></g></g><g><path d="m126.865 116.137h-70.776c-17.022 0-30.872-13.85-30.872-30.873s13.85-30.873 30.872-30.873h32.048c22.458 0 40.729 18.271 40.729 40.729v19.017c-.001 1.104-.896 2-2.001 2zm-70.776-57.746c-14.817 0-26.872 12.055-26.872 26.873 0 14.817 12.055 26.873 26.872 26.873h68.776v-17.017c0-20.252-16.477-36.729-36.729-36.729z" fill="#3762cc"/></g><g><path d="m68.723 196.863c-23.53 0-44.045-15.582-50.41-38.077-12.132-.678-17.679-9.335-17.679-17.402 0-9.122 6.759-16.401 15.716-17.342.305-12.703 3.688-23.791 10.068-32.982.446-.645 1.227-.972 2.006-.827.772.143 1.391.725 1.578 1.488 2.966 12.021 13.693 20.416 26.087 20.416h62.046c.975 0 1.808.703 1.972 1.663.567 3.323.898 6.76.986 10.242 8.959.94 15.718 8.219 15.718 17.341 0 8.066-5.547 16.724-17.679 17.402-6.365 22.496-26.879 38.078-50.409 38.078zm-41.251-99.995c-4.744 8.263-7.145 18.02-7.145 29.071 0 1.104-.896 2-2 2-7.679 0-13.693 5.905-13.693 13.444 0 6.692 4.708 13.445 15.226 13.445.916 0 1.715.623 1.939 1.511 5.423 21.505 24.719 36.524 46.923 36.524 22.205 0 41.501-15.019 46.924-36.524.225-.888 1.023-1.511 1.939-1.511 10.518 0 15.226-6.752 15.226-13.444 0-7.539-6.015-13.445-13.693-13.445-1.104 0-2-.896-2-2 0-3.323-.232-6.613-.692-9.802h-60.337c-12.75 0-23.964-7.735-28.617-19.269zm93.645 29.071h.01z" fill="#3762cc"/></g><g><ellipse cx="36.183" cy="157.676" fill="#f9a7a7" rx="8.966" ry="5.005"/></g><g><ellipse cx="101.262" cy="157.676" fill="#f9a7a7" rx="8.966" ry="5.005"/></g><g><path d="m94.892 150.891c-3.619 0-6.552-2.934-6.552-6.552v-6.989c0-3.619 2.934-6.552 6.552-6.552 3.619 0 6.552 2.934 6.552 6.552v6.989c0 3.619-2.933 6.552-6.552 6.552z" fill="#3762cc"/></g><g><path d="m42.552 150.891c-3.619 0-6.552-2.934-6.552-6.552v-6.989c0-3.619 2.934-6.552 6.552-6.552 3.619 0 6.552 2.934 6.552 6.552v6.989c0 3.619-2.933 6.552-6.552 6.552z" fill="#3762cc"/></g><g><path d="m68.722 175.914c-6.719 0-12.167-5.447-12.167-12.167v-.895c0-1.779 1.442-3.22 3.22-3.22h17.893c1.779 0 3.22 1.442 3.22 3.22v.895c.001 6.72-5.446 12.167-12.166 12.167z" fill="#f9a7a7"/></g><g><path d="m68.722 194.863c-5.972 0-11.699-1.043-17.014-2.949v3.188l17.014 9.147 17.014-9.147v-3.188c-5.315 1.906-11.042 2.949-17.014 2.949z" fill="#f9cfcf"/></g><g><path d="m68.722 206.249c-.326 0-.651-.08-.947-.238l-17.014-9.147c-.648-.349-1.053-1.025-1.053-1.762v-3.188c0-.651.316-1.261.849-1.636s1.216-.467 1.827-.247c5.238 1.879 10.735 2.832 16.338 2.832h.001c5.603 0 11.1-.953 16.338-2.832.612-.221 1.293-.128 1.827.247.532.375.849.985.849 1.636v3.188c0 .736-.404 1.413-1.053 1.762l-17.015 9.147c-.296.158-.622.238-.947.238zm-12.158-10.808 12.157 6.537 12.157-6.536c-7.931 1.889-16.382 1.889-24.314-.001z" fill="#3762cc"/></g><g><path d="m68.722 177.915c-7.812 0-14.166-6.355-14.166-14.167v-.895c0-2.879 2.342-5.221 5.22-5.221h17.893c2.879 0 5.221 2.342 5.221 5.221v.895c-.001 7.812-6.357 14.167-14.168 14.167zm-8.947-16.283c-.673 0-1.22.547-1.22 1.221v.895c0 5.606 4.561 10.167 10.166 10.167 5.606 0 10.167-4.561 10.167-10.167v-.895c0-.673-.548-1.221-1.221-1.221z" fill="#3762cc"/></g></g><g><path d="m28.125 187.967c-2.619 0-4.742 2.123-4.742 4.741v14.782h-15.75c-2.761 0-5 2.239-5 5v22.75c0 2.761 2.239 5 5 5h20.233c2.761 0 5-2.239 5-5v-6.5-16.25-19.782c.001-2.618-2.122-4.741-4.741-4.741z" fill="#f9cfcf"/></g><g><path d="m2.633 235.241v-22.75c0-2.761 2.239-5 5-5h10.767c2.761 0 5 2.239 5 5v22.75c0 2.761-2.239 5-5 5h-10.767c-2.761 0-5-2.239-5-5z" fill="#f9cfcf"/></g><g><path d="m27.866 242.241h-20.232c-3.859 0-7-3.14-7-7v-22.75c0-3.86 3.141-7 7-7h13.75v-12.782c0-3.717 3.024-6.742 6.741-6.742s6.741 3.024 6.741 6.742v42.532c0 3.86-3.14 7-7 7zm-20.232-32.75c-1.654 0-3 1.346-3 3v22.75c0 1.654 1.346 3 3 3h20.232c1.654 0 3-1.346 3-3v-42.532c0-1.512-1.229-2.742-2.741-2.742s-2.741 1.23-2.741 2.742v14.782c0 1.104-.896 2-2 2z" fill="#3762cc"/></g><g><path d="m18.4 242.241h-10.766c-3.859 0-7-3.14-7-7v-22.75c0-3.86 3.141-7 7-7h10.766c3.859 0 7 3.14 7 7v22.75c0 3.86-3.14 7-7 7zm-10.766-32.75c-1.654 0-3 1.346-3 3v22.75c0 1.654 1.346 3 3 3h10.766c1.654 0 3-1.346 3-3v-22.75c0-1.654-1.346-3-3-3z" fill="#3762cc"/></g><g><path d="m22.197 228.741h10.67v-8.783h-10.67c-2.425 0-4.391 1.966-4.391 4.391-.001 2.426 1.965 4.392 4.391 4.392z" fill="#f9cfcf"/></g><g><path d="m32.866 230.741h-10.67c-3.524 0-6.392-2.867-6.392-6.392 0-3.524 2.867-6.391 6.392-6.391h10.67c1.104 0 2 .896 2 2v8.783c0 1.104-.895 2-2 2zm-10.67-8.783c-1.318 0-2.392 1.073-2.392 2.391 0 1.319 1.073 2.392 2.392 2.392h8.67v-4.783z" fill="#3762cc"/></g></g><g><path d="m224.459 100.197h-12.865c-1.657 0-3 1.343-3 3v37.543c0 1.657 1.343 3 3 3h12.865c1.657 0 3-1.343 3-3v-37.543c0-1.656-1.343-3-3-3z" fill="#6bdddd"/></g><g><path d="m224.459 145.741h-12.865c-2.757 0-5-2.243-5-5v-37.543c0-2.757 2.243-5 5-5h12.865c2.757 0 5 2.243 5 5v37.543c0 2.757-2.243 5-5 5zm-12.865-43.544c-.552 0-1 .449-1 1v37.543c0 .551.448 1 1 1h12.865c.552 0 1-.449 1-1v-37.543c0-.551-.448-1-1-1z" fill="#3762cc"/></g><g><path d="m184.025 190.298c-7.889 0-14.307-6.419-14.307-14.308 0-7.888 6.418-14.306 14.307-14.306 7.89 0 14.308 6.418 14.308 14.306.001 7.889-6.418 14.308-14.308 14.308z" fill="#e0ebfc"/></g><g><g><path d="m227.802 165.096h-8.866c-.655-2.094-1.503-4.136-2.526-6.08l6.274-6.275c.845-.845 1.311-1.969 1.311-3.165 0-1.195-.466-2.319-1.311-3.164l-9.08-9.08c-.845-.845-1.969-1.311-3.165-1.311-1.195 0-2.319.466-3.164 1.311l-6.274 6.275c-1.944-1.023-3.987-1.871-6.08-2.526v-8.866c0-2.468-2.007-4.475-4.475-4.475h-12.841c-2.468 0-4.475 2.007-4.475 4.475v8.866c-2.092.655-4.135 1.503-6.08 2.526l-6.274-6.275c-.845-.845-1.969-1.311-3.164-1.311s-2.319.466-3.165 1.311l-9.08 9.08c-.845.845-1.311 1.969-1.311 3.164s.466 2.32 1.311 3.164l6.274 6.275c-1.023 1.944-1.871 3.987-2.526 6.08h-8.866c-2.468 0-4.475 2.007-4.475 4.475v12.841c0 2.467 2.007 4.475 4.475 4.475h8.866c.655 2.093 1.503 4.136 2.526 6.08l-6.274 6.274c-.845.845-1.311 1.969-1.311 3.164 0 1.196.466 2.32 1.311 3.165l9.08 9.08c.845.845 1.969 1.311 3.165 1.311 1.195 0 2.319-.465 3.164-1.311l6.274-6.275c1.944 1.023 3.987 1.872 6.08 2.526v8.866c0 2.467 2.007 4.475 4.475 4.475h12.841c2.468 0 4.475-2.008 4.475-4.475v-8.866c2.092-.655 4.135-1.503 6.08-2.526l6.274 6.275c.845.845 1.969 1.311 3.164 1.311s2.319-.465 3.165-1.311l9.08-9.08c.845-.845 1.311-1.969 1.311-3.165 0-1.195-.466-2.319-1.311-3.164l-6.274-6.275c1.023-1.944 1.871-3.987 2.526-6.08h8.866c2.468 0 4.475-2.008 4.475-4.475v-12.841c-.001-2.466-2.008-4.473-4.475-4.473z" fill="#f9a7a7"/></g><g><path d="m190.447 226.241h-12.841c-3.57 0-6.475-2.905-6.475-6.475v-7.426c-1.253-.445-2.485-.958-3.687-1.531l-5.254 5.254c-1.224 1.223-2.85 1.896-4.578 1.896-1.729 0-3.355-.673-4.579-1.896l-9.079-9.08c-1.224-1.224-1.896-2.85-1.896-4.579s.673-3.354 1.896-4.578l5.255-5.254c-.573-1.2-1.085-2.432-1.531-3.687h-7.427c-3.57 0-6.475-2.904-6.475-6.475v-12.84c0-3.57 2.904-6.475 6.475-6.475h7.427c.446-1.254.958-2.487 1.531-3.686l-5.254-5.255c-1.223-1.222-1.896-2.848-1.896-4.578 0-1.729.673-3.354 1.896-4.578l9.08-9.08c1.224-1.223 2.85-1.896 4.579-1.896s3.354.673 4.578 1.896l5.254 5.255c1.2-.574 2.434-1.086 3.687-1.532v-7.425c0-3.57 2.904-6.475 6.475-6.475h12.841c3.57 0 6.475 2.905 6.475 6.475v7.426c1.254.446 2.486.958 3.687 1.532l5.254-5.254c1.222-1.223 2.848-1.896 4.577-1.896s3.355.673 4.579 1.896l9.079 9.08c1.224 1.223 1.897 2.849 1.897 4.578 0 1.73-.674 3.357-1.898 4.58l-5.253 5.253c.573 1.199 1.085 2.432 1.531 3.686h7.427c3.57 0 6.475 2.904 6.475 6.475v12.841c0 3.57-2.904 6.475-6.475 6.475h-7.427c-.446 1.254-.958 2.487-1.531 3.687l5.254 5.254c1.224 1.223 1.897 2.849 1.897 4.578 0 1.73-.674 3.356-1.897 4.579l-9.079 9.079c-1.224 1.223-2.85 1.896-4.579 1.896s-3.355-.674-4.578-1.897l-5.253-5.254c-1.202.574-2.435 1.086-3.687 1.532v7.426c-.002 3.568-2.906 6.473-6.477 6.473zm-23.394-19.867c.316 0 .637.075.931.23 1.836.967 3.77 1.77 5.745 2.387.835.261 1.403 1.034 1.403 1.909v8.866c0 1.365 1.11 2.475 2.475 2.475h12.841c1.364 0 2.475-1.11 2.475-2.475v-8.866c0-.875.568-1.648 1.403-1.909 1.974-.618 3.907-1.421 5.746-2.388.776-.409 1.727-.264 2.345.356l6.274 6.275c.936.935 2.564.935 3.5 0l9.079-9.079c.468-.468.726-1.089.726-1.75s-.258-1.282-.726-1.75l-6.274-6.275c-.62-.62-.764-1.57-.355-2.346.964-1.831 1.767-3.765 2.388-5.746.261-.834 1.034-1.402 1.908-1.402h8.866c1.364 0 2.475-1.11 2.475-2.475v-12.841c0-1.365-1.11-2.475-2.475-2.475h-8.866c-.874 0-1.647-.568-1.908-1.402-.621-1.982-1.424-3.915-2.388-5.746-.408-.775-.265-1.726.355-2.346l6.274-6.275c.468-.468.726-1.089.726-1.75s-.258-1.282-.726-1.75l-9.079-9.08c-.936-.935-2.565-.934-3.499 0l-6.275 6.275c-.618.62-1.569.765-2.346.356-1.832-.965-3.766-1.768-5.746-2.388-.834-.261-1.402-1.034-1.402-1.909v-8.865c0-1.365-1.11-2.475-2.475-2.475h-12.841c-1.364 0-2.475 1.11-2.475 2.475v8.865c0 .875-.568 1.647-1.402 1.909-1.979.619-3.912 1.422-5.746 2.388-.775.409-1.728.264-2.346-.356l-6.274-6.275c-.936-.935-2.565-.935-3.501 0l-9.079 9.079c-.467.468-.725 1.089-.725 1.75s.257 1.283.725 1.75l6.274 6.276c.62.62.764 1.57.355 2.346-.964 1.831-1.767 3.764-2.388 5.746-.261.834-1.034 1.402-1.908 1.402h-8.866c-1.364 0-2.475 1.11-2.475 2.475v12.841c0 1.365 1.11 2.475 2.475 2.475h8.866c.874 0 1.647.568 1.908 1.402.621 1.981 1.424 3.915 2.388 5.746.408.775.265 1.726-.355 2.346l-6.274 6.274c-.467.468-.725 1.089-.725 1.75s.258 1.283.726 1.751l9.078 9.079c.936.935 2.565.935 3.501 0l6.274-6.274c.383-.385.896-.586 1.415-.586z" fill="#3762cc"/></g><g><path d="m184.025 151.344c-13.589 0-24.646 11.057-24.646 24.646 0 13.591 11.056 24.648 24.646 24.648s24.648-11.057 24.648-24.648c0-13.59-11.057-24.646-24.648-24.646zm0 38.954c-7.889 0-14.307-6.419-14.307-14.308 0-7.888 6.418-14.306 14.307-14.306 7.89 0 14.308 6.418 14.308 14.306.001 7.889-6.418 14.308-14.308 14.308z" fill="#f9cfcf"/></g><g><path d="m184.025 202.638c-14.692 0-26.646-11.955-26.646-26.648s11.953-26.646 26.646-26.646c14.694 0 26.648 11.953 26.648 26.646.001 14.694-11.953 26.648-26.648 26.648zm0-49.294c-12.486 0-22.646 10.159-22.646 22.646 0 12.488 10.159 22.648 22.646 22.648 12.488 0 22.648-10.16 22.648-22.648.001-12.487-10.159-22.646-22.648-22.646zm0 38.954c-8.992 0-16.308-7.316-16.308-16.308 0-8.991 7.315-16.306 16.308-16.306s16.309 7.314 16.309 16.306-7.316 16.308-16.309 16.308zm0-28.614c-6.786 0-12.308 5.521-12.308 12.306 0 6.787 5.521 12.308 12.308 12.308s12.309-5.521 12.309-12.308c0-6.785-5.521-12.306-12.309-12.306z" fill="#3762cc"/></g></g></g></svg>