<svg width="167" height="21" viewBox="0 0 167 21" fill="none" xmlns="http://www.w3.org/2000/svg">
<path d="M0.113636 3.72869V0.636363H16.3608V3.72869H10.0668V21H6.40767V3.72869H0.113636ZM19.4929 21V0.636363H32.7372V3.72869H23.1818V9.2571H32.0511V12.3494H23.1818V17.9077H32.8168V21H19.4929ZM56.7624 0.636363H61.2766L67.3221 15.392H67.5607L73.6062 0.636363H78.1204V21H74.5806V7.00994H74.3917L68.7638 20.9403H66.119L60.4911 6.98011H60.3022V21H56.7624V0.636363ZM82.1374 21V0.636363H89.7738C91.3382 0.636363 92.6507 0.92803 93.7113 1.51136C94.7785 2.0947 95.5839 2.89678 96.1275 3.91761C96.6777 4.93182 96.9528 6.08523 96.9528 7.37784C96.9528 8.68371 96.6777 9.84375 96.1275 10.858C95.5773 11.8722 94.7653 12.6709 93.6914 13.2543C92.6175 13.831 91.2951 14.1193 89.7241 14.1193H84.663V11.0866H89.2269C90.1417 11.0866 90.8907 10.9276 91.4741 10.6094C92.0574 10.2912 92.4883 9.85369 92.7667 9.29688C93.0517 8.74006 93.1942 8.10038 93.1942 7.37784C93.1942 6.6553 93.0517 6.01894 92.7667 5.46875C92.4883 4.91856 92.0541 4.491 91.4641 4.18608C90.8808 3.87453 90.1284 3.71875 89.207 3.71875H85.8263V21H82.1374ZM100.157 21V0.636363H103.846V17.9077H112.815V21H100.157ZM119.397 21H115.46L122.629 0.636363H127.183L134.362 21H130.424L124.985 4.8125H124.826L119.397 21ZM119.526 13.0156H130.265V15.9787H119.526V13.0156ZM133.688 3.72869V0.636363H149.935V3.72869H143.641V21H139.982V3.72869H133.688ZM153.067 21V0.636363H166.311V3.72869H156.756V9.2571H165.625V12.3494H156.756V17.9077H166.391V21H153.067Z" fill="#111827"/>
<path d="M39.1158 21H35.1783L42.3473 0.636363H46.9013L54.0803 21H50.1428L44.7038 4.8125H44.5447L39.1158 21ZM39.245 13.0156H49.9837V15.9787H39.245V13.0156Z" fill="white"/>
</svg>
