<svg id="_x33_0" enable-background="new 0 0 62 62" height="512" viewBox="0 0 62 62" width="512" xmlns="http://www.w3.org/2000/svg"><g><g><g><path d="m22.67 61h-9.67v-9.67c0 5.34 4.33 9.67 9.67 9.67z" fill="#fcd770"/></g><g><path d="m22 53h7v4 4h-6-.33c-5.34 0-9.67-4.33-9.67-9.67 0-1.19.48-2.28 1.27-3.06.78-.79 1.87-1.27 3.06-1.27 1.06 0 2.04.38 2.8 1.03.76.64 1.3 1.55 1.47 2.59z" fill="#fcd770"/></g><g><path d="m13 51.33v9.67h-4v-11c0-.55.45-1 1-1h2c.55 0 1 .45 1 1z" fill="#838f9b"/></g><g><path d="m47 57-.62 2.49c-.22.89-1.02 1.51-1.94 1.51h-15.44v-4h4 9z" fill="#aab2bd"/></g><g><path d="m51 40.78c0 .15-.02.29-.05.43l-3.95 15.79h-5l4.64-16.7c.1-.38.33-.71.63-.94.31-.23.68-.36 1.08-.36h.87c.98 0 1.78.8 1.78 1.78z" fill="#ccd1d9"/></g><g><path d="m43 1c9.94 0 18 8.06 18 18 0 8.69-6.17 15.95-14.36 17.63-1.18.24-2.39.37-3.64.37-3.78 0-7.29-1.17-10.19-3.16.12-.26.19-.54.19-.84 0-1.1-.9-2-2-2v-6c0-3.15-1.48-6.11-4-8v-4h3c.55 0 1-.45 1-1v-2c0-.55-.45-1-1-1h-1.97c3.23-4.82 8.73-8 14.97-8z" fill="#69d6f4"/></g><g><path d="m19.49 6.94.51 2.06h-6l.51-2.06c.29-1.14 1.31-1.94 2.49-1.94s2.2.8 2.49 1.94z" fill="#969faa"/></g><g><path d="m31 10v2c0 .55-.45 1-1 1h-3-20-3c-.55 0-1-.45-1-1v-1-1c0-.55.45-1 1-1h10 6 8.03 1.97c.55 0 1 .45 1 1z" fill="#aab2bd"/></g><g><path d="m7 13h20v4h-20z" fill="#ccd1d9"/></g><g><path d="m15.89 26.19c-1.25.53-2.61.81-3.98.81-.81 0-1.53-.32-2.06-.85l-.59-.85-2.37.95c-1.14.45-1.89 1.55-1.89 2.78v1.97h-2v-6c0-.68.07-1.36.2-2.01 1.01-.1 1.8-.96 1.8-1.99 0-.5-.18-.95-.48-1.3.64-1.03 1.48-1.95 2.48-2.7h20c2.52 1.89 4 4.85 4 8v6h-2v-1.97c0-1.23-.75-2.33-1.89-2.78l-3.11-1.25-.43.28c-1.67 1.12-3.65 1.72-5.66 1.72-.79 0-1.5-.3-2.02-.81z" fill="#b27946"/></g><g><path d="m33 57h-4v-4c2.21 0 4 1.79 4 4z" fill="#f0d0b4"/></g><g><path d="m33 33c0 .3-.07.58-.19.84-.09.21-.23.41-.4.57-.36.37-.86.59-1.41.59h-2v-4h2c1.1 0 2 .9 2 2z" fill="#f0d0b4"/></g><g><path d="m5 31v4h-2c-.55 0-1.05-.22-1.41-.59-.37-.36-.59-.86-.59-1.41 0-1.1.9-2 2-2z" fill="#f0d0b4"/></g><g><path d="m9.26 25.3.59.85c.53.53 1.25.85 2.06.85 1.37 0 2.73-.28 3.98-.81.52.51 1.23.81 2.02.81 2.01 0 3.99-.6 5.66-1.72l.43-.28 3.11 1.25c1.14.45 1.89 1.55 1.89 2.78v1.97 4c0 3.32-1.34 6.32-3.51 8.49-2.1 2.1-4.97 3.42-8.16 3.5-.11.01-.22.01-.33.01-6.63 0-12-5.37-12-12v-4-1.97c0-1.23.75-2.33 1.89-2.78z" fill="#f0d0b4"/></g><g><path d="m21 39-.27 1.09c-.43 1.71-1.97 2.91-3.73 2.91s-3.3-1.2-3.73-2.91l-.27-1.09z" fill="#ff826e"/></g><g><path d="m4.52 19.7c.3.35.48.8.48 1.3 0 1.03-.79 1.89-1.8 1.99-.06.01-.13.01-.2.01-1.1 0-2-.9-2-2s.9-2 2-2c.6 0 1.15.27 1.52.7z" fill="#fcd770"/></g></g><g><path d="m12.303 40.332c.539 2.16 2.471 3.668 4.697 3.668s4.158-1.508 4.697-3.668l.584-2.332h-10.562zm7.412-.332c-.367 1.186-1.462 2-2.715 2s-2.348-.814-2.715-2z"/><path d="m12 34h2v-1c0-1.654-1.346-3-3-3s-3 1.346-3 3v1h2v-1c0-.551.448-1 1-1s1 .449 1 1z"/><path d="m23 30c-1.654 0-3 1.346-3 3v1h2v-1c0-.551.448-1 1-1s1 .449 1 1v1h2v-1c0-1.654-1.346-3-3-3z"/><path d="m30 44h2v2h-2z"/><path d="m34 44h2v2h-2z"/><path d="m38 44h2v2h-2z"/><path d="m62 19c0-10.477-8.523-19-19-19-6.171 0-11.914 2.984-15.483 8h-6.737l-.325-1.302c-.396-1.589-1.817-2.698-3.455-2.698s-3.059 1.109-3.455 2.698l-.325 1.302h-9.22c-1.103 0-2 .897-2 2v1 1 6.184c-1.161.414-2 1.514-2 2.816 0 1.326.87 2.44 2.064 2.836-.041.386-.064.775-.064 1.164v5.184c-1.161.414-2 1.514-2 2.816 0 1.654 1.346 3 3 3h1.051c.425 5.546 4.339 10.117 9.549 11.533-.229.225-.433.472-.618.735-.292-.166-.624-.268-.982-.268h-2c-1.103 0-2 .897-2 2v12h14.669.331 21.438c1.379 0 2.576-.935 2.91-2.272l4.569-18.274c.056-.22.083-.446.083-.673 0-1.533-1.248-2.781-2.781-2.781h-.865c-1.245 0-2.347.837-2.68 2.037l-4.434 15.963h-7.341c-.465-2.279-2.484-4-4.899-4h-6.152l-.258-1.545c-.204-1.223-.817-2.278-1.675-3.06 4.955-1.568 8.623-6.032 9.035-11.395h1.05c.795 0 1.515-.316 2.052-.823 2.989 1.843 6.405 2.823 9.948 2.823 10.477 0 19-8.523 19-19zm-30 11.184v-2.184h3.794c.857 2.099 1.994 4.086 3.422 5.872l1.582 1.977c-2.431-.314-4.752-1.15-6.837-2.462.017-.128.039-.255.039-.387 0-1.302-.839-2.402-2-2.816zm-26-13.654c-.638.527-1.218 1.113-1.72 1.768-.091-.044-.184-.08-.28-.114v-4.184h2zm2-2.53h18v2h-18zm20 0h2c1.103 0 2-.897 2-2h3.079c-.599 1.942-.949 3.957-1.036 6h-4.565c-.439-.533-.94-1.016-1.478-1.461zm20.832-2c.655 1.93 1.03 3.951 1.125 6h-13.914c.095-2.049.47-4.07 1.125-6zm-10.879-2c.744-1.644 1.689-3.201 2.826-4.622l2.221-2.777 2.222 2.776c1.137 1.421 2.082 2.978 2.826 4.623zm21.996 8h-7.992c-.087-2.043-.438-4.058-1.036-6h7.554c.839 1.849 1.35 3.871 1.474 6zm-22.781 8c-.655-1.93-1.03-3.951-1.125-6h13.914c-.095 2.049-.47 4.07-1.125 6zm10.879 2c-.744 1.644-1.689 3.201-2.826 4.622l-2.221 2.777-2.222-2.776c-1.137-1.421-2.082-2.978-2.826-4.623zm3.91-8h7.992c-.125 2.129-.635 4.151-1.475 6h-7.554c.599-1.942.95-3.957 1.037-6zm-17.914 0c.087 2.043.438 4.058 1.036 6h-3.079v-1c0-1.755-.431-3.467-1.215-5zm11.167 15.839 1.574-1.968c1.428-1.786 2.565-3.773 3.422-5.872h7.189c-2.636 4.203-7.049 7.169-12.185 7.84zm12.186-25.839h-7.189c-.857-2.099-1.994-4.086-3.422-5.872l-1.575-1.967c5.136.671 9.549 3.637 12.186 7.839zm-16.593-7.856-1.588 1.984c-1.427 1.786-2.564 3.773-3.421 5.872h-3.794c0-1.09-.877-1.975-1.961-1.996 2.741-3.231 6.574-5.316 10.764-5.86zm-25.319 5.039c.175-.697.798-1.183 1.516-1.183s1.341.486 1.516 1.183l.204.817h-3.44zm-11.484 2.817h26l.001 2h-26.001v-1zm-1 10c.552 0 1 .449 1 1s-.448 1-1 1-1-.449-1-1 .448-1 1-1zm-1 13c0-.551.448-1 1-1h1v2h-1c-.552 0-1-.449-1-1zm10 27h-2v-10h2zm2 0v-2.474c.684.954 1.519 1.79 2.474 2.474zm30.438 0h-14.438v-2h15.72l-.311 1.242c-.112.446-.511.758-.971.758zm3.164-19.429c.092-.336.402-.571.752-.571h.865c.43 0 .781.35.781.781 0 .064-.008.129-.022.189l-3.758 15.03h-2.904zm-15.786 15.429h-1.816v-1.816c.847.302 1.514.969 1.816 1.816zm-3.816-2v6h-5-.331c-4.78 0-8.669-3.889-8.669-8.669 0-1.837 1.494-3.331 3.331-3.331 1.635 0 3.017 1.171 3.286 2.783l.331 1.991-1.781 2.671 1.664 1.109 1.704-2.554zm0-19c0 6.065-4.935 11-11 11s-11-4.935-11-11v-5.969c0-.823.493-1.552 1.257-1.857l1.618-.647c.716.891 1.801 1.473 3.03 1.473 1.307 0 2.582-.237 3.805-.679.626.428 1.382.679 2.195.679 2.218 0 4.365-.649 6.212-1.876l2.626 1.05c.764.305 1.257 1.034 1.257 1.857zm-.515-9.683-3.603-1.44-.863.575c-1.519 1.012-3.288 1.548-5.114 1.548-1.051 0-1.905-.855-1.905-1.906 0-.821.523-1.548 1.304-1.808l1.013-.338-.633-1.897-1.013.338c-1.598.533-2.671 2.022-2.671 3.705 0 .559.123 1.089.335 1.57-.79.217-1.601.336-2.43.336-1.051 0-1.905-.855-1.905-1.906 0-.821.523-1.548 1.304-1.808l1.013-.338-.633-1.897-1.013.338c-1.598.533-2.671 2.022-2.671 3.705 0 .207.03.406.061.604l-1.546.619c-1.528.611-2.515 2.069-2.515 3.714v-4.031c0-.406.038-.811.092-1.213 1.114-.438 1.908-1.519 1.908-2.787 0-.454-.109-.88-.29-1.266.47-.651 1.022-1.23 1.647-1.734h19.279c2.106 1.699 3.364 4.286 3.364 7v4.031c0-1.645-.987-3.103-2.515-3.714zm3.515 8.683h-1v-2h1c.552 0 1 .449 1 1s-.448 1-1 1z"/></g></g></svg>