<svg id="_x33_0" enable-background="new 0 0 62 62" height="512" viewBox="0 0 62 62" width="512" xmlns="http://www.w3.org/2000/svg"><g><g><g><path d="m10 33v4h-6v-4l.59-.59c.9-.9 2.13-1.41 3.41-1.41v1c0 .55.45 1 1 1z" fill="#ffeaa7"/></g><g><path d="m47.59 6.42c-.12.28-.12.3-.24.58h-2.35v4h2.35c.12.28.13.3.24.58l-1.42 1.42h-6.17c-1.63 0-3.09.79-4 2-3.87 0-7 3.13-7 7 0 .67.05 1.33.14 1.99l.83 5.8c-.6.55-.97 1.34-.97 2.21 0 .83.34 1.58.88 2.12s1.29.88 2.12.88h1v2c0 3.41 2.13 6.32 5.13 7.47l.08.28c-4.3 2.39-7.21 6.98-7.21 12.25v2h-12l-.86-6h7.86c.55 0 1-.45 1-1v-14c0-.55-.45-1-1-1h-8v-4h1c.55 0 1-.45 1-1v-1c1.28 0 2.51.51 3.41 1.41l.59.59v-4c0-2.21-1.79-4-4-4v-6.29c0-1.28-.23-2.54-.65-3.71-.94-2.57-2.82-4.74-5.35-6-2.53 1.26-4.41 3.43-5.35 6-.42 1.17-.65 2.43-.65 3.71v6.29c-2.21 0-4 1.79-4 4v-24h42l.09-.08z" fill="#ffeaa7"/></g><g><path d="m45.17 49c1.81 0 3.55.72 4.83 2l1.79-6.25c4.3 2.39 7.21 6.98 7.21 12.25 0 1.1-.45 2.1-1.17 2.83-.73.72-1.73 1.17-2.83 1.17h-15c-.55 0-1-.45-1-1v-1-4h-1c-1.66 0-3 1.34-3 3v1h-4v-2c0-5.27 2.91-9.86 7.21-12.25l1.79 6.25c1.28-1.28 3.02-2 4.83-2h.17z" fill="#b4dd7f"/></g><g><path d="m51.79 44.75-1.79 6.25c-1.28-1.28-3.02-2-4.83-2h-.17l4-4c1.01 0 1.98-.19 2.87-.53z" fill="#a0d468"/></g><g><path d="m41 45 4 4h-.17c-1.81 0-3.55.72-4.83 2l-1.79-6.25-.08-.28c.89.34 1.86.53 2.87.53z" fill="#a0d468"/></g><g><path d="m48.76 16.07 1.66-1.66c.28.11.3.12.58.24v2.35h4v-2.35c.01-.01.02-.01.03-.01 3.57 2.09 5.97 5.97 5.97 10.41 0 1.29-.21 2.58-.62 3.8l-.32.97c-.53-.5-1.26-.82-2.06-.82h-1c0-2.21-1.79-4-4-4h-8c-3.25 0-6.4-1.05-9-3-1.87 1.25-3 3.35-3 5.61v1.39h-1c-.79 0-1.5.3-2.03.79l-.83-5.8c-.09-.66-.14-1.32-.14-1.99 0-3.87 3.13-7 7-7 .91-1.21 2.37-2 4-2h6.17l-.24.24z" fill="#656d78"/></g><g><path d="m4 1h47v2.35c-.28.12-.3.12-.58.24l-1.66-1.66-2.83 2.83.16.16-.09.08h-42z" fill="#b4dd7f"/></g><g><path d="m61 7v4h-2.35c-.12.28-.12.3-.24.58l1.66 1.66-2.83 2.83-1.66-1.66c-.27.11-.3.12-.55.23-.01 0-.02 0-.03.01v2.35h-4v-2.35c-.28-.12-.3-.13-.58-.24l-1.66 1.66-2.83-2.83.24-.24 1.42-1.42c-.11-.28-.12-.3-.24-.58h-2.35v-4h2.35c.12-.28.12-.3.24-.58l-1.5-1.5-.16-.16 2.83-2.83 1.66 1.66c.28-.12.3-.12.58-.24v-2.35h4v2.35c.28.12.3.12.58.24l1.66-1.66 2.83 2.83-1.66 1.66c.12.28.12.3.24.58zm-6 2c0-1.1-.9-2-2-2s-2 .9-2 2 .9 2 2 2 2-.9 2-2z" fill="#fcd770"/></g><g><path d="m10 33h8v4h-8z" fill="#aab2bd"/></g><g><path d="m19.35 15h-10.7c.94-2.57 2.82-4.74 5.35-6 2.53 1.26 4.41 3.43 5.35 6z" fill="#ff826e"/></g><g><path d="m24 29v4l-.59-.59c-.9-.9-2.13-1.41-3.41-1.41v-2-4c2.21 0 4 1.79 4 4z" fill="#ff826e"/></g><g><path d="m8 29v2c-1.28 0-2.51.51-3.41 1.41l-.59.59v-4c0-2.21 1.79-4 4-4z" fill="#ff826e"/></g><g><path d="m27 38v14c0 .55-.45 1-1 1h-7.86l-.89-6.28c-.15-.99-.99-1.72-1.98-1.72h-2.54c-.99 0-1.83.73-1.98 1.72l-.89 6.28h-7.86c-.55 0-1-.45-1-1v-14c0-.55.45-1 1-1h2 6 8 8c.55 0 1 .45 1 1z" fill="#ccd1d9"/></g><g><path d="m18.14 53 .86 6h-10l.86-6 .89-6.28c.15-.99.99-1.72 1.98-1.72h2.54c.99 0 1.83.73 1.98 1.72z" fill="#aab2bd"/></g><g><path d="m39 55v4h-4v-1c0-1.66 1.34-3 3-3z" fill="#f0d0b4"/></g><g><path d="m49 45-4 4-4-4z" fill="#f0d0b4"/></g><g><path d="m60.06 29.82c.58.55.94 1.32.94 2.18 0 .83-.34 1.58-.88 2.12s-1.29.88-2.12.88h-1v-6h1c.8 0 1.53.32 2.06.82z" fill="#f0d0b4"/></g><g><path d="m57 35v2c0 3.41-2.13 6.32-5.13 7.47-.89.34-1.86.53-2.87.53h-8c-1.01 0-1.98-.19-2.87-.53-3-1.15-5.13-4.06-5.13-7.47v-2-6-1.39c0-2.26 1.13-4.36 3-5.61 2.6 1.95 5.75 3 9 3h8c2.21 0 4 1.79 4 4z" fill="#f0d0b4"/></g><g><path d="m33 29v6h-1c-.83 0-1.58-.34-2.12-.88s-.88-1.29-.88-2.12c0-.87.37-1.66.97-2.21.53-.49 1.24-.79 2.03-.79z" fill="#f0d0b4"/></g><g><path d="m41 37h8c0 1.1-.45 2.1-1.17 2.83-.73.72-1.73 1.17-2.83 1.17-2.21 0-4-1.79-4-4z" fill="#ff826e"/></g><g><circle cx="14" cy="21" fill="#69d6f4" r="2"/></g><g><path d="m19.35 15h-10.7c-.42 1.17-.65 2.43-.65 3.71v6.29 4 2 1c0 .55.45 1 1 1h1 8 1c.55 0 1-.45 1-1v-1-2-4-6.29c0-1.28-.23-2.54-.65-3.71z" fill="#ccd1d9"/></g></g><g><path d="m40 37c0 2.757 2.243 5 5 5s5-2.243 5-5v-1h-10zm7.829 1c-.413 1.164-1.525 2-2.829 2s-2.416-.836-2.829-2z"/><path d="m42 32h2c0-2.206-1.794-4-4-4s-4 1.794-4 4h2c0-1.103.897-2 2-2s2 .897 2 2z"/><path d="m50 28c-2.206 0-4 1.794-4 4h2c0-1.103.897-2 2-2s2 .897 2 2h2c0-2.206-1.794-4-4-4z"/><path d="m14 24c1.654 0 3-1.346 3-3s-1.346-3-3-3-3 1.346-3 3 1.346 3 3 3zm0-4c.552 0 1 .449 1 1s-.448 1-1 1-1-.449-1-1 .448-1 1-1z"/><path d="m53 6c-1.654 0-3 1.346-3 3s1.346 3 3 3 3-1.346 3-3-1.346-3-3-3zm0 4c-.552 0-1-.449-1-1s.448-1 1-1 1 .449 1 1-.448 1-1 1z"/><path d="m62 6h-1.758l1.243-1.243-4.243-4.243-1.242 1.243v-1.757h-6v1.757l-1.242-1.242-4.243 4.243 1.243 1.242h-1.758v6h-4c-1.783 0-3.382.786-4.482 2.024-4.186.252-7.518 3.727-7.518 7.976 0 .714.051 1.432.151 2.131l.765 5.352c-.564.69-.916 1.559-.916 2.517 0 2.206 1.794 4 4 4v1c0 3.28 1.769 6.147 4.398 7.72-3.978 2.791-6.398 7.361-6.398 12.28v1h-10.133l-.571-4h6.704c1.103 0 2-.897 2-2v-14c0-1.103-.897-2-2-2h-7v-2c1.052 0 1.908-.82 1.985-1.853.644.174 1.246.498 1.722.974l2.293 2.293v-6.414c0-2.414-1.721-4.434-4-4.899v-5.393c0-4.519-2.511-8.582-6.553-10.603l-.447-.223-.447.224c-4.042 2.02-6.553 6.083-6.553 10.602v5.393c-2.279.465-4 2.485-4 4.899v6.414l2.293-2.293c.476-.475 1.078-.8 1.722-.974.077 1.033.933 1.853 1.985 1.853v2h-7c-1.103 0-2 .897-2 2v14c0 1.103.897 2 2 2h6.704l-.857 6h30.153c0 1.103.897 2 2 2h15c2.757 0 5-2.243 5-5 0-4.919-2.42-9.489-6.398-12.28 2.629-1.573 4.398-4.44 4.398-7.72v-1c2.206 0 4-1.794 4-4 0-.901-.31-1.724-.814-2.393l.145-.437c.443-1.333.669-2.721.669-4.125 0-3.311-1.28-6.464-3.472-8.846l2.958-2.957-1.244-1.242h1.758zm-53 26v-2h10v2zm.38-16h9.239c.245.867.38 1.774.38 2.708v9.292h-9.999v-9.292c0-.934.135-1.841.38-2.708zm13.62 13v1.834c-.613-.367-1.295-.611-2-.735v-3.914c1.161.413 2 1.513 2 2.815zm-9-18.868c1.639.925 2.931 2.276 3.796 3.868h-7.591c.864-1.592 2.156-2.942 3.795-3.868zm-9 20.702v-1.834c0-1.302.839-2.402 2-2.816v3.914c-.705.125-1.387.369-2 .736zm6 3.166h6v2h-6zm-9 18v-14h24v14h-6.99l-.775-5.424c-.21-1.469-1.486-2.576-2.969-2.576h-2.531c-1.483 0-2.76 1.107-2.97 2.576l-.775 5.424zm8.153 6 1.592-11.142c.069-.489.495-.858.989-.858h2.531c.494 0 .92.369.989.859l1.593 11.141zm19.847-26c0-1.103.897-2 2-2v4c-1.103 0-2-.897-2-2zm19.436 13.978c.334-.016.664-.05.988-.102l-.97 3.396c-.708-.465-1.488-.794-2.306-1.006zm-4.436 1.608-1.586-1.586h3.172zm-4.436-1.608 2.288 2.288c-.818.212-1.598.541-2.306 1.006l-.97-3.396c.324.052.653.086.988.102zm-4.564 12.022c0-1.103.897-2 2-2v2zm22-1c0 1.654-1.346 3-3 3h-15v-4h11.586l1.707 1.707 1.414-1.414-2.293-2.293h-14.414c-2.206 0-4 1.794-4 4h-2v-1c0-4.293 2.127-8.28 5.619-10.694l1.887 6.603 1.201-1.202c1.101-1.101 2.564-1.707 4.121-1.707h.172.172c1.557 0 3.021.606 4.121 1.707l1.201 1.202 1.887-6.603c3.492 2.414 5.619 6.401 5.619 10.694zm-2-20c0 3.86-3.141 7-7 7h-8c-3.859 0-7-3.14-7-7v-9.395c0-1.695.743-3.284 2.016-4.367 2.635 1.786 5.797 2.762 8.984 2.762h8c1.654 0 3 1.346 3 3zm2-3v-4c1.103 0 2 .897 2 2s-.897 2-2 2zm1.502-5.702c-.464-.189-.97-.298-1.502-.298h-.101c-.465-2.279-2.484-4-4.899-4h-8c-3.009 0-5.992-.995-8.4-2.8l-.565-.425-.589.393c-2.158 1.438-3.446 3.845-3.446 6.437v.395c-.437 0-.85.088-1.244.218l-.624-4.371c-.088-.606-.132-1.227-.132-1.847 0-2.703 1.797-4.993 4.259-5.741-.167.552-.259 1.136-.259 1.741h2c0-2.206 1.794-4 4-4h5.272l3.486 3.485 1.242-1.242v1.757h6v-1.437c2.495 2.081 4 5.185 4 8.482 0 1.105-.172 2.197-.498 3.253zm.498-18.298h-2.018l-.753 1.815 1.428 1.427-1.415 1.414-1.427-1.427-1.815.753v2.018h-2v-2.02l-1.816-.75-1.426 1.427-1.415-1.414 1.427-1.426-.752-1.817h-2.018v-2h2.018l.753-1.815-1.428-1.427 1.415-1.415 1.427 1.427 1.815-.752v-2.018h2v2.018l1.815.752 1.427-1.427 1.415 1.415-1.428 1.427.753 1.815h2.018z"/><path d="m5 6h37v-2h-25v-2h25v-2h-39v24h2zm4-2v-2h2v2zm6 0h-2v-2h2zm-8-2v2h-2v-2z"/><path d="m23 8h2v2h-2z"/><path d="m27 8h9v2h-9z"/><path d="m23 12h7v2h-7z"/></g></g></svg>