<svg id="Layer_1" enable-background="new 0 0 512 512" viewBox="0 0 512 512" xmlns="http://www.w3.org/2000/svg"><g><g><path clip-rule="evenodd" d="m256 97.58c5.56 0 11.06.29 16.47.85 8.25.86 14.59 7.27 15.36 15.52l2.13 22.9c1.16 12.49 15.82 18.49 25.41 10.41l17.57-14.82c6.34-5.35 15.35-5.47 21.83-.3 8.94 7.13 17.09 15.22 24.29 24.09 5.23 6.44 5.18 15.45-.12 21.84l-14.68 17.69c-8.01 9.65-1.89 24.26 10.61 25.32l22.92 1.94c8.27.7 14.73 7 15.65 15.24.65 5.82.98 11.73.98 17.73 0 5.56-.29 11.06-.85 16.47-.86 8.25-7.27 14.59-15.52 15.36l-22.9 2.13c-12.49 1.16-18.49 15.82-10.41 25.41l14.82 17.57c5.35 6.34 5.47 15.35.3 21.83-7.13 8.94-15.22 17.09-24.09 24.29-6.44 5.23-15.45 5.18-21.84-.12l-17.69-14.68c-9.65-8.01-24.26-1.89-25.32 10.61l-1.94 22.92c-.7 8.27-7 14.73-15.24 15.65-5.82.65-11.73.98-17.73.98-5.56 0-11.06-.29-16.47-.85-8.25-.86-14.59-7.27-15.36-15.52l-2.13-22.9c-1.16-12.49-15.82-18.49-25.41-10.41l-17.57 14.82c-6.34 5.35-15.35 5.47-21.83.3-8.94-7.13-17.09-15.22-24.29-24.09-5.23-6.44-5.18-15.45.12-21.84l14.68-17.69c8.01-9.65 1.89-24.26-10.61-25.32l-22.92-1.94c-8.27-.7-14.73-7-15.65-15.24-.65-5.82-.98-11.73-.98-17.73 0-5.56.29-11.06.85-16.47.86-8.25 7.27-14.59 15.52-15.36l22.9-2.13c12.49-1.16 18.49-15.82 10.41-25.41l-14.82-17.57c-5.35-6.34-5.47-15.35-.3-21.83 7.13-8.94 15.22-17.09 24.09-24.29 6.44-5.23 15.45-5.18 21.84.12l17.69 14.68c9.65 8.01 24.26 1.89 25.32-10.61l1.94-22.92c.7-8.27 7-14.73 15.24-15.65 5.82-.65 11.74-.98 17.73-.98z" fill="#b6c4cf" fill-rule="evenodd"/><g><ellipse clip-rule="evenodd" cx="256" cy="256" fill="#d4f2f6" fill-rule="evenodd" rx="79.34" ry="79.34" transform="matrix(.707 -.707 .707 .707 -106.039 256.001)"/></g><g clip-rule="evenodd" fill-rule="evenodd"><g><circle cx="443.24" cy="40.85" fill="#ffdec2" r="24.85"/><path d="m443.24 80.61c-26.68.4-48.83 20.41-52.61 46.17-.76 5.16 1.36 9.99 5.67 12.94 14.27 9.74 35.3 13.52 46.94 13.52 11.65 0 32.68-3.78 46.94-13.52 4.31-2.94 6.43-7.77 5.67-12.94-3.78-25.76-25.93-45.77-52.61-46.17z" fill="#d6f6b2"/></g><g><ellipse cx="68.76" cy="40.85" fill="#ffdec2" rx="24.85" ry="24.85" transform="matrix(.707 -.707 .707 .707 -8.747 60.588)"/><path d="m68.76 80.61c-26.68.4-48.83 20.41-52.61 46.17-.76 5.16 1.36 9.99 5.67 12.94 14.26 9.74 35.3 13.52 46.94 13.52 11.65 0 32.68-3.78 46.94-13.52 4.31-2.94 6.43-7.77 5.67-12.94-3.77-25.76-25.93-45.77-52.61-46.17z" fill="#a6e7f0"/></g><g><circle cx="443.24" cy="383.62" fill="#ffdec2" r="24.85"/><path d="m443.24 423.38c-26.68.4-48.83 20.41-52.61 46.17-.76 5.16 1.36 9.99 5.67 12.94 14.27 9.74 35.3 13.52 46.94 13.52 11.65 0 32.68-3.78 46.94-13.52 4.31-2.94 6.43-7.77 5.67-12.94-3.78-25.77-25.93-45.77-52.61-46.17z" fill="#dbd2fd"/></g><g><ellipse cx="68.76" cy="383.62" fill="#ffdec2" rx="24.85" ry="24.85" transform="matrix(.987 -.16 .16 .987 -60.561 15.968)"/><path d="m68.76 423.38c-26.68.4-48.83 20.41-52.61 46.17-.76 5.16 1.36 9.99 5.67 12.94 14.27 9.74 35.3 13.51 46.94 13.51 11.65 0 32.68-3.78 46.94-13.52 4.31-2.94 6.43-7.77 5.67-12.94-3.77-25.76-25.93-45.76-52.61-46.16z" fill="#fbdd72"/></g></g></g><path clip-rule="evenodd" d="m112.88 478.36c-13.58 9.28-33.82 12.64-44.12 12.64s-30.54-3.36-44.12-12.64c-2.73-1.87-4.02-4.81-3.54-8.08 3.45-23.51 23.93-41.5 47.66-41.9 23.74.4 44.22 18.39 47.66 41.9.48 3.27-.8 6.21-3.54 8.08zm-44.04-59.98c-.05 0-.1 0-.15 0-28.62.43-53.33 22.12-57.48 50.45-1.04 7.09 1.87 13.74 7.79 17.79 14.48 9.88 35.94 14.38 49.76 14.38s35.29-4.5 49.76-14.38c5.92-4.05 8.84-10.7 7.8-17.79-4.15-28.33-28.87-50.02-57.48-50.45zm-.08-54.61c10.95 0 19.85 8.9 19.85 19.85s-8.9 19.85-19.85 19.85-19.85-8.9-19.85-19.85 8.9-19.85 19.85-19.85zm0 49.7c16.46 0 29.85-13.39 29.85-29.85s-13.39-29.85-29.85-29.85-29.85 13.39-29.85 29.85 13.39 29.85 29.85 29.85zm418.6 64.89c-13.58 9.28-33.83 12.64-44.12 12.64-10.3 0-30.54-3.36-44.13-12.64-2.72-1.87-4.02-4.81-3.54-8.08 3.45-23.51 23.93-41.5 47.67-41.9 23.73.4 44.22 18.39 47.66 41.9.48 3.27-.81 6.21-3.54 8.08zm-44.05-59.98c-.05 0-.1 0-.15 0-28.61.43-53.33 22.12-57.48 50.45-1.04 7.09 1.87 13.74 7.8 17.79 14.47 9.88 35.94 14.38 49.76 14.38s35.29-4.5 49.76-14.38c5.92-4.05 8.84-10.7 7.8-17.79-4.16-28.33-28.87-50.02-57.49-50.45zm-.07-54.61c10.94 0 19.85 8.9 19.85 19.85s-8.91 19.85-19.85 19.85c-10.95 0-19.85-8.9-19.85-19.85s8.9-19.85 19.85-19.85zm0 49.7c16.46 0 29.85-13.39 29.85-29.85s-13.39-29.85-29.85-29.85-29.85 13.39-29.85 29.85 13.39 29.85 29.85 29.85zm-422.14-285.96c3.45-23.5 23.93-41.5 47.66-41.89 23.74.39 44.22 18.39 47.66 41.89.48 3.27-.81 6.22-3.54 8.07-13.59 9.28-33.83 12.65-44.12 12.65s-30.54-3.37-44.12-12.65c-2.73-1.85-4.02-4.8-3.54-8.07zm-2.1 16.34c14.48 9.89 35.94 14.39 49.76 14.39s35.29-4.5 49.76-14.39c5.93-4.04 8.84-10.69 7.8-17.79-4.15-28.33-28.87-50.01-57.48-50.44-.05-.01-.1-.01-.15 0-28.62.43-53.33 22.11-57.48 50.44-1.05 7.1 1.87 13.75 7.79 17.79zm49.76-122.85c10.95 0 19.85 8.91 19.85 19.86 0 10.94-8.9 19.85-19.85 19.85s-19.85-8.91-19.85-19.85c0-10.95 8.9-19.86 19.85-19.86zm0 49.71c16.46 0 29.85-13.39 29.85-29.85.01-16.46-13.39-29.86-29.85-29.86s-29.85 13.4-29.85 29.86 13.39 29.85 29.85 29.85zm326.81 56.8c3.45-23.5 23.93-41.5 47.67-41.89 23.73.39 44.22 18.39 47.66 41.89.48 3.27-.81 6.22-3.54 8.07-13.59 9.28-33.83 12.65-44.12 12.65s-30.54-3.37-44.13-12.65c-2.72-1.85-4.02-4.8-3.54-8.07zm-2.09 16.34c14.47 9.89 35.94 14.39 49.76 14.39s35.28-4.5 49.76-14.39c5.92-4.04 8.84-10.69 7.8-17.79-4.16-28.33-28.87-50.01-57.49-50.44-.05-.01-.1-.01-.15 0-28.61.43-53.33 22.11-57.48 50.44-1.04 7.1 1.87 13.75 7.8 17.79zm49.76-122.85c10.94 0 19.85 8.91 19.85 19.86 0 10.94-8.91 19.85-19.85 19.85-10.95 0-19.85-8.91-19.85-19.85 0-10.95 8.9-19.86 19.85-19.86zm0 49.71c16.46 0 29.85-13.39 29.85-29.85s-13.39-29.86-29.85-29.86-29.85 13.4-29.85 29.86 13.39 29.85 29.85 29.85zm34.01 185.29c0 28.51-5.35 56.27-15.91 82.52-.79 1.95-2.66 3.13-4.64 3.13-.63 0-1.26-.12-1.87-.36-2.56-1.03-3.8-3.94-2.77-6.51 10.08-25.05 15.19-51.56 15.19-78.78 0-26.9-4.99-53.1-14.82-77.89-1.02-2.56.23-5.47 2.8-6.49s5.47.24 6.49 2.81c10.31 25.96 15.53 53.4 15.53 81.57zm-354.95-170.04c-1.66-2.21-1.21-5.35 1-7 38.52-28.92 84.41-44.21 132.7-44.21s94.18 15.29 132.7 44.2c2.21 1.66 2.65 4.8 1 7.01-1.66 2.2-4.79 2.65-7 .99-36.79-27.6-80.59-42.2-126.7-42.2s-89.92 14.6-126.7 42.2c-.9.68-1.95 1-3 1-1.51 0-3.01-.68-4-1.99zm-62.72 92.16c-9.84 24.78-14.83 50.99-14.83 77.88 0 27.22 5.11 53.73 15.19 78.78 1.03 2.57-.21 5.48-2.77 6.51-.61.24-1.25.36-1.87.36-1.98 0-3.86-1.18-4.64-3.13-10.56-26.25-15.91-54.01-15.91-82.52 0-28.16 5.22-55.61 15.53-81.57 1.02-2.57 3.93-3.83 6.49-2.81 2.57 1.02 3.82 3.93 2.81 6.5zm324.22 252.4c1.58 2.26 1.03 5.38-1.23 6.96-37.24 26.02-81.01 39.77-126.57 39.77s-89.32-13.75-126.57-39.77c-2.26-1.58-2.82-4.7-1.23-6.96 1.58-2.26 4.7-2.82 6.96-1.24 35.55 24.84 77.34 37.97 120.84 37.97s85.29-13.13 120.84-37.97c2.26-1.58 5.38-1.03 6.96 1.24zm-81.15-179.52c-.35-13.39-2.45-25.83-5.9-36.69 5.7-1.56 11.22-3.45 16.51-5.65 9.67 11.66 15.82 26.32 16.89 42.34zm-6.47 46.55c3.62-10.75 5.87-23.16 6.4-36.55h27.57c-1.07 16.03-7.22 30.69-16.89 42.35-5.47-2.28-11.18-4.22-17.08-5.8zm-3.68 9.36c4.56 1.19 9 2.6 13.3 4.23-7.56 6.84-16.53 12.13-26.41 15.41 5.06-5.06 9.5-11.72 13.11-19.64zm-73 0c3.61 7.92 8.05 14.58 13.11 19.64-9.88-3.28-18.85-8.57-26.41-15.41 4.29-1.63 8.74-3.04 13.3-4.23zm-10.08-45.91c.52 13.39 2.77 25.8 6.4 36.55-5.9 1.58-11.61 3.52-17.08 5.8-9.66-11.66-15.82-26.32-16.89-42.35zm5.82-46.69c-3.45 10.86-5.54 23.3-5.9 36.69h-27.5c1.07-16.02 7.22-30.68 16.89-42.34 5.3 2.2 10.82 4.09 16.51 5.65zm3.5-9.42c-4.29-1.14-8.48-2.48-12.54-4.02 6.88-6.22 14.93-11.17 23.76-14.49-4.31 5.02-8.1 11.28-11.22 18.51zm63.29-18.51c8.84 3.32 16.89 8.27 23.77 14.49-4.06 1.54-8.25 2.88-12.54 4.02-3.12-7.23-6.91-13.49-11.23-18.51zm-21.03 23.2c7.57-.25 15.01-1.07 22.22-2.42-5.7-12.49-13.53-21.19-22.22-23.64zm0 41.42v-31.42c8.83-.27 17.5-1.26 25.89-2.94 3.31 10.12 5.38 21.87 5.76 34.36zm0 41.43v-31.43h31.56c-.55 12.52-2.79 24.25-6.28 34.25-8.19-1.6-16.67-2.56-25.28-2.82zm0 10v24.14c8.28-2.33 15.76-10.34 21.38-21.88-6.95-1.26-14.11-2.02-21.38-2.26zm-10 0c-7.28.24-14.43 1-21.38 2.26 5.62 11.54 13.1 19.55 21.38 21.88zm0-41.43v31.43c-8.62.26-17.09 1.22-25.29 2.82-3.48-10-5.73-21.73-6.27-34.25zm-22.22-53.84c7.21 1.35 14.65 2.17 22.22 2.42v-26.06c-8.69 2.45-16.52 11.15-22.22 23.64zm22.22 12.42v31.42h-31.65c.37-12.49 2.45-24.24 5.76-34.36 8.39 1.68 17.07 2.67 25.89 2.94zm5-47.91c-46.51 0-84.34 37.83-84.34 84.33 0 46.51 37.83 84.34 84.34 84.34 46.5 0 84.34-37.83 84.34-84.34 0-46.5-37.84-84.33-84.34-84.33zm104.92 146.93c-4.94-5.87-6.22-13.91-3.32-20.99s9.45-11.92 17.09-12.62l22.89-2.13c5.88-.55 10.41-5.03 11.02-10.9 1.14-10.99 1.1-22.13-.13-33.13-.65-5.87-5.22-10.31-11.1-10.81l-22.92-1.95c-7.64-.65-14.23-5.43-17.18-12.49-2.96-7.05-1.75-15.1 3.15-21.01l14.68-17.69c3.77-4.54 3.8-10.91.08-15.49-6.97-8.59-14.89-16.44-23.53-23.34-4.61-3.68-10.98-3.59-15.49.21l-17.57 14.82c-5.86 4.95-13.9 6.22-20.98 3.32s-11.92-9.44-12.63-17.08l-2.13-22.9c-.55-5.87-5.03-10.4-10.9-11.01-10.99-1.15-22.14-1.1-33.13.12-5.87.66-10.32 5.22-10.82 11.1l-1.94 22.92c-.65 7.65-5.44 14.23-12.49 17.19-7.06 2.95-15.11 1.75-21.01-3.15l-17.69-14.68c-4.54-3.77-10.91-3.81-15.49-.09-8.58 6.97-16.44 14.89-23.34 23.53-3.68 4.61-3.6 10.98.21 15.49l14.82 17.57c4.94 5.87 6.22 13.91 3.32 20.99-2.9 7.07-9.44 11.91-17.08 12.62l-22.9 2.13c-5.88.55-10.41 5.03-11.01 10.9-1.14 10.99-1.1 22.13.13 33.13.65 5.86 5.22 10.31 11.1 10.81l22.92 1.95c7.64.64 14.23 5.43 17.18 12.49 2.95 7.05 1.74 15.1-3.15 21l-14.68 17.69c-3.77 4.55-3.8 10.92-.08 15.5 6.97 8.58 14.89 16.43 23.53 23.34 4.61 3.68 10.98 3.59 15.49-.21l17.57-14.82c3.79-3.19 8.47-4.86 13.22-4.86 2.62 0 5.25.51 7.76 1.54 7.08 2.9 11.92 9.44 12.63 17.08l2.13 22.9c.55 5.87 5.03 10.4 10.9 11.01 10.99 1.14 22.14 1.1 33.13-.12 5.86-.66 10.31-5.22 10.81-11.11l1.95-22.92c.64-7.64 5.43-14.22 12.49-17.18s15.11-1.75 21.01 3.15l17.69 14.68c4.54 3.77 10.91 3.8 15.49.09 8.59-6.97 16.44-14.89 23.34-23.54 3.68-4.61 3.6-10.97-.21-15.48zm14.69-23.66c-3.97.37-7.25 2.79-8.75 6.46-1.51 3.68-.87 7.7 1.71 10.75l14.82 17.57c6.92 8.2 7.07 19.79.38 28.17-7.35 9.21-15.71 17.64-24.85 25.06-8.34 6.77-19.93 6.7-28.19-.15l-17.69-14.68c-3.07-2.56-7.09-3.16-10.75-1.63-3.67 1.54-6.05 4.83-6.39 8.81l-1.95 22.92c-.91 10.7-9 19.01-19.67 20.19-6.06.68-12.16 1.02-18.26 1.02-5.69 0-11.37-.3-17.01-.88-10.68-1.11-18.83-9.35-19.82-20.04l-2.13-22.89c-.37-3.98-2.78-7.25-6.46-8.76-3.68-1.5-7.69-.87-10.75 1.71l-17.57 14.82c-8.2 6.92-19.78 7.08-28.17.38-9.2-7.36-17.64-15.71-25.06-24.85-6.76-8.33-6.7-19.92.16-28.18l14.68-17.69c2.55-3.07 3.16-7.1 1.62-10.76s-4.83-6.05-8.81-6.39l-22.92-1.95c-10.7-.9-19-8.99-20.19-19.67-1.3-11.7-1.35-23.57-.13-35.27 1.11-10.67 9.35-18.82 20.03-19.82l22.9-2.13c3.97-.36 7.25-2.78 8.75-6.46 1.5-3.67.87-7.69-1.71-10.74l-14.82-17.57c-6.92-8.2-7.08-19.79-.38-28.18 7.35-9.2 15.71-17.63 24.85-25.05 8.33-6.77 19.92-6.71 28.18.15l17.69 14.68c3.08 2.55 7.1 3.16 10.76 1.62 3.66-1.53 6.05-4.82 6.39-8.8l1.94-22.92c.91-10.7 9-19.01 19.67-20.2 11.71-1.3 23.57-1.35 35.27-.13 10.68 1.11 18.83 9.35 19.82 20.03l2.13 22.9c.37 3.98 2.78 7.25 6.46 8.76 3.67 1.5 7.69.86 10.74-1.71l17.57-14.82c8.21-6.92 19.79-7.08 28.18-.38 9.2 7.34 17.63 15.7 25.06 24.85 6.76 8.33 6.7 19.92-.16 28.18l-14.68 17.69c-2.55 3.07-3.15 7.09-1.62 10.76 1.53 3.66 4.83 6.05 8.81 6.39l22.92 1.94c10.7.91 19 9 20.19 19.67 1.3 11.71 1.35 23.58.13 35.27-1.11 10.68-9.34 18.83-20.03 19.82z" fill="#333" fill-rule="evenodd"/></g></svg>