<svg id="Icons" viewBox="0 0 60 60" xmlns="http://www.w3.org/2000/svg"><path d="m45 7v28l-12 18.35a74.657 74.657 0 0 1 -10 .65c-12.15 0-22-2.69-22-6v-41z" fill="#276d82"/><ellipse cx="23" cy="7" fill="#397a91" rx="22" ry="6"/><path d="m1 34c0 3.314 9.85 6 22 6s22-2.686 22-6v-13c0 3.314-9.85 6-22 6s-22-2.686-22-6z" fill="#397a91"/><rect fill="#e5bf45" height="26" rx="4" width="26" x="33" y="33"/><g fill="#373737"><path d="m55 32h-9v-25c0-4.6-11.57-7-23-7s-23 2.4-23 7v41c0 4.6 11.57 7 23 7a76.221 76.221 0 0 0 9-.525v.525a5.006 5.006 0 0 0 5 5h18a5.006 5.006 0 0 0 5-5v-13a1 1 0 0 0 -2 0v13a3 3 0 0 1 -3 3h-18a3 3 0 0 1 -3-3v-18a3 3 0 0 1 3-3h18a3 3 0 0 1 3 3v1a1 1 0 0 0 2 0v-1a5.006 5.006 0 0 0 -5-5zm-32-30c12.819 0 21 2.961 21 5s-8.181 5-21 5-21-2.961-21-5 8.181-5 21-5zm-21 8.041c3.8 2.609 12.437 3.959 21 3.959s17.2-1.35 21-3.959v10.959c0 2.039-8.181 5-21 5s-21-2.961-21-5zm21 42.959c-12.819 0-21-2.961-21-5v-10.959c3.8 2.609 12.437 3.959 21 3.959a75.007 75.007 0 0 0 9-.528v11.988a75.012 75.012 0 0 1 -9 .54zm9-16v1.458a73.785 73.785 0 0 1 -9 .542c-12.819 0-21-2.961-21-5v-9.959c3.8 2.609 12.437 3.959 21 3.959s17.2-1.35 21-3.959v7.959h-7a5.006 5.006 0 0 0 -5 5z"/><path d="m45 54a1 1 0 0 0 1-1v-10a5 5 0 0 0 -10 0v10a1 1 0 0 0 2 0v-5h6v5a1 1 0 0 0 1 1zm-7-8v-3a3 3 0 0 1 6 0v3z"/><path d="m55 40a1 1 0 0 0 0-2h-6a1 1 0 0 0 0 2h2v12h-2a1 1 0 0 0 0 2h6a1 1 0 0 0 0-2h-2v-12z"/></g></svg>