<svg id="Layer_1" viewBox="0 0 512 512" xmlns="http://www.w3.org/2000/svg" data-name="Layer 1"><g fill-rule="evenodd"><path d="m128.129 432.428-1.794-10.261-58.919-49.749a42.528 42.528 0 0 1 -15.083-26.918c-8.1-39.453-16-79.011-24.322-118.411a23.866 23.866 0 0 1 18.3-28.238 23.3 23.3 0 0 1 17.653 3.285 24.859 24.859 0 0 1 10.536 14.788l16.862 66.576a23.679 23.679 0 0 1 15.011 2.95l79.186 45.5a42.412 42.412 0 0 1 18.7 21.28l20.585 49.722 7.712-2.35a6.362 6.362 0 0 1 7.935 4.241l14.256 46.757a6.362 6.362 0 0 1 -4.242 7.935l-118.635 36.172a6.361 6.361 0 0 1 -7.935-4.242l-14.26-46.765a6.363 6.363 0 0 1 4.242-7.935l14.212-4.333zm251.947 63.279-118.636-36.169a6.365 6.365 0 0 1 -4.24-7.938l14.26-46.769a6.362 6.362 0 0 1 7.935-4.241l7.711 2.35 20.585-49.722a42.408 42.408 0 0 1 18.7-21.28l79.186-45.5a23.674 23.674 0 0 1 15.01-2.95l16.863-66.571a24.848 24.848 0 0 1 10.536-14.79 23.514 23.514 0 0 1 32.627 7.063c3.261 5.037 4.942 12.52 3.216 18.372l-24.218 117.938a42.526 42.526 0 0 1 -15.081 26.92l-58.921 49.749-1.792 10.261 14.211 4.333a6.362 6.362 0 0 1 4.241 7.935l-14.258 46.769a6.362 6.362 0 0 1 -7.935 4.242zm-134.35-448.107a17.061 17.061 0 0 0 -17.026 17.03v5.942a101.815 101.815 0 0 0 -23.51 9.744l-4.205-4.2a17.058 17.058 0 0 0 -24.083 0l-14.493 14.484a17.063 17.063 0 0 0 0 24.085l4.206 4.2a101.652 101.652 0 0 0 -9.745 23.51h-5.942a17.063 17.063 0 0 0 -17.03 17.03v20.495a17.063 17.063 0 0 0 17.03 17.031h5.943a101.754 101.754 0 0 0 9.743 23.51l-4.193 4.217a17.025 17.025 0 0 0 -.012 24.07l14.488 14.49a17.06 17.06 0 0 0 24.085 0l4.205-4.2a101.316 101.316 0 0 0 23.51 9.745v5.941a17.063 17.063 0 0 0 17.029 17.031h20.491a17.064 17.064 0 0 0 17.032-17.031v-5.942a101.715 101.715 0 0 0 23.509-9.744l4.206 4.2a17.06 17.06 0 0 0 24.085 0l14.488-14.49a17.059 17.059 0 0 0 0-24.083l-4.2-4.2a101.9 101.9 0 0 0 9.743-23.51h5.942a17.066 17.066 0 0 0 17.031-17.031v-20.496a17.066 17.066 0 0 0 -17.031-17.03h-5.942a101.864 101.864 0 0 0 -9.744-23.51l4.2-4.2a17.06 17.06 0 0 0 0-24.085l-14.49-14.488a17.056 17.056 0 0 0 -24.082 0l-4.206 4.2a101.812 101.812 0 0 0 -23.509-9.744v-5.941a17.063 17.063 0 0 0 -17.032-17.03zm126.641 82.963a6.373 6.373 0 1 1 5.439-11.527l11.693 5.507a139.491 139.491 0 0 0 -5.256-13.275 140.886 140.886 0 0 0 -268.243 42.318 6.38 6.38 0 0 1 -12.677-1.447 153.685 153.685 0 0 1 292.5-46.161q2.8 6.126 5.019 12.393l4.325-9.18a6.373 6.373 0 1 1 11.528 5.439l-11.465 24.335a6.388 6.388 0 0 1 -8.5 3.073zm23.583 55.2a140.979 140.979 0 0 1 -268.25 42.32 139.686 139.686 0 0 1 -5.258-13.276l11.693 5.507a6.373 6.373 0 0 0 5.441-11.527l-24.331-11.46a6.378 6.378 0 0 0 -8.541 3.075l-11.452 24.318a6.374 6.374 0 0 0 11.529 5.439l4.324-9.181q2.224 6.261 5.02 12.395a153.65 153.65 0 0 0 292.5-46.163 6.379 6.379 0 1 0 -12.676-1.446z"/><path d="m123.708 447.006 10.549 34.6 106.464-32.458-10.548-34.6q-53.232 16.227-106.465 32.458z" fill="#689ff2"/><path d="m299.343 406.6 72.173 22 1.928-10.974a6.333 6.333 0 0 1 2.161-3.768l60.695-51.247a29.791 29.791 0 0 0 10.69-19.084c.077.01 22.106-108.015 24.473-119.161a11.012 11.012 0 0 0 -1.53-8.308 10.841 10.841 0 0 0 -15.011-3.319 12.082 12.082 0 0 0 -5.1 7.2l-17.379 68.612c7.5 6.109 9.87 16.016 7.348 25.346a22.12 22.12 0 0 1 -10.527 13.7l-57.843 33.235a6.361 6.361 0 1 1 -6.338-11.03l57.843-33.234c11.55-6.635 1.982-26.643-11.015-19.175l-79.185 45.5a29.787 29.787 0 0 0 -13.26 15.091z" fill="#ffcbc1"/><path d="m271.231 449.144 106.469 32.456 10.548-34.6q-53.232-16.231-106.465-32.459z" fill="#689ff2"/><path d="m266.221 60.3h-20.492a4.283 4.283 0 0 0 -4.253 4.254l-.024 10.915a6.367 6.367 0 0 1 -4.992 6.213 89.728 89.728 0 0 0 -28.376 11.653 6.388 6.388 0 0 1 -8.411-.548l-7.72-7.719a4.287 4.287 0 0 0 -6.019 0l-14.489 14.489a4.292 4.292 0 0 0 0 6.019l7.7 7.737a6.364 6.364 0 0 1 .865 7.917 89.821 89.821 0 0 0 -11.834 28.316 6.389 6.389 0 0 1 -6.334 5.553h-10.911a4.287 4.287 0 0 0 -4.254 4.254v20.491a4.285 4.285 0 0 0 4.254 4.255l10.915.024a6.365 6.365 0 0 1 6.213 4.992 89.815 89.815 0 0 0 11.654 28.377 6.391 6.391 0 0 1 -.548 8.411l-7.733 7.708a4.315 4.315 0 0 0 .013 6.029l14.489 14.49a4.288 4.288 0 0 0 6.018 0l7.738-7.7a6.362 6.362 0 0 1 7.918-.866 90.139 90.139 0 0 0 28.315 11.836 6.39 6.39 0 0 1 5.553 6.334v10.914a4.283 4.283 0 0 0 4.253 4.255h20.492a4.283 4.283 0 0 0 4.254-4.255l.026-10.914a6.363 6.363 0 0 1 4.99-6.213 89.772 89.772 0 0 0 28.378-11.654 6.388 6.388 0 0 1 8.41.548l7.721 7.715a4.286 4.286 0 0 0 6.016 0l14.49-14.489a4.287 4.287 0 0 0 0-6.017l-7.7-7.739a6.365 6.365 0 0 1 -.866-7.917 89.873 89.873 0 0 0 11.835-28.315 6.387 6.387 0 0 1 6.332-5.554h10.913a4.287 4.287 0 0 0 4.255-4.255v-20.491a4.289 4.289 0 0 0 -4.255-4.254l-10.915-.023a6.366 6.366 0 0 1 -6.213-4.992 89.8 89.8 0 0 0 -11.653-28.378 6.387 6.387 0 0 1 .548-8.41l7.719-7.72a4.289 4.289 0 0 0 0-6.019l-14.489-14.488a4.283 4.283 0 0 0 -6.016 0l-7.739 7.7a6.364 6.364 0 0 1 -7.917.866 89.788 89.788 0 0 0 -28.317-11.835 6.389 6.389 0 0 1 -5.553-6.333v-10.912a4.283 4.283 0 0 0 -4.254-4.254zm-10.246 44.67a64.631 64.631 0 1 1 -45.7 18.93 64.424 64.424 0 0 1 45.7-18.929z" fill="#0085c4"/><path d="m290.815 208.005a19.321 19.321 0 0 0 -3.916-2.887 19.061 19.061 0 0 0 -9.315-2.4h-43.215a19.067 19.067 0 0 0 -9.316 2.4 19.353 19.353 0 0 0 -3.915 2.887 51.853 51.853 0 0 0 69.677 0z" fill="#0085c4"/><path d="m212.815 198.346a32.518 32.518 0 0 1 6.05-4.357 31.749 31.749 0 0 1 15.5-4.05h43.215a31.749 31.749 0 0 1 15.5 4.05 32.432 32.432 0 0 1 6.049 4.357 51.853 51.853 0 1 0 -86.321 0zm43.16-64.928a24.625 24.625 0 1 1 -17.41 7.214 24.542 24.542 0 0 1 17.41-7.214z" fill="#fff"/><path d="m264.354 149.663a11.853 11.853 0 1 0 3.469 8.379 11.819 11.819 0 0 0 -3.469-8.379z" fill="#0085c4"/><path d="m84.483 310.606a9.6 9.6 0 0 0 4.539 5.967l57.844 33.234a6.361 6.361 0 1 1 -6.339 11.03l-57.843-33.237a22.127 22.127 0 0 1 -10.527-13.7c-2.521-9.33-.153-19.237 7.349-25.346l-17.38-68.612a12.077 12.077 0 0 0 -5.1-7.2 10.642 10.642 0 0 0 -8.071-1.489 11 11 0 0 0 -6.94 4.808c-1.922 2.971-1.953 5.348-1.458 8.7l24.331 118.439c.837 4.109 1.487 7.1 3.6 10.871a30.964 30.964 0 0 0 7.167 8.538l60.694 51.248a6.338 6.338 0 0 1 2.161 3.769h.011l1.918 10.975 72.171-22-20.125-48.612a29.775 29.775 0 0 0 -13.26-15.091l-79.185-45.5c-9.015-5.179-18.29 3.092-15.557 13.208z" fill="#ffcbc1"/></g></svg>